<svg width="102" height="13" viewBox="0 0 102 13" fill="none" xmlns="http://www.w3.org/2000/svg">
<path d="M0.660511 12.4545V3.45455H2.72301V4.57528H2.78693C2.87216 4.37642 2.9929 4.18466 3.14915 4C3.30824 3.81534 3.50994 3.66477 3.75426 3.5483C4.00142 3.42898 4.29688 3.36932 4.64062 3.36932C5.09517 3.36932 5.51989 3.48864 5.91477 3.72727C6.3125 3.96591 6.63352 4.33381 6.87784 4.83097C7.12216 5.32812 7.24432 5.96165 7.24432 6.73153C7.24432 7.47301 7.12642 8.09375 6.89062 8.59375C6.65767 9.09375 6.34233 9.46875 5.9446 9.71875C5.54972 9.96875 5.1108 10.0938 4.62784 10.0938C4.2983 10.0938 4.01278 10.0398 3.77131 9.93182C3.52983 9.82386 3.3267 9.68182 3.16193 9.50568C3 9.32955 2.875 9.14062 2.78693 8.93892H2.74432V12.4545H0.660511ZM2.7017 6.72727C2.7017 7.07955 2.74858 7.38636 2.84233 7.64773C2.93892 7.90909 3.0767 8.11222 3.25568 8.2571C3.4375 8.39915 3.65483 8.47017 3.90767 8.47017C4.16335 8.47017 4.38068 8.39915 4.55966 8.2571C4.73864 8.11222 4.87358 7.90909 4.96449 7.64773C5.05824 7.38636 5.10511 7.07955 5.10511 6.72727C5.10511 6.375 5.05824 6.0696 4.96449 5.81108C4.87358 5.55256 4.73864 5.35227 4.55966 5.21023C4.38352 5.06818 4.16619 4.99716 3.90767 4.99716C3.65199 4.99716 3.43466 5.06676 3.25568 5.20597C3.0767 5.34517 2.93892 5.54403 2.84233 5.80256C2.74858 6.06108 2.7017 6.36932 2.7017 6.72727ZM8.33629 10V3.45455H10.3604V4.64773H10.4286C10.5479 4.21591 10.7425 3.89489 11.0124 3.68466C11.2823 3.47159 11.5962 3.36506 11.9542 3.36506C12.0508 3.36506 12.1502 3.37216 12.2525 3.38636C12.3548 3.39773 12.4499 3.41619 12.538 3.44176V5.25284C12.4386 5.21875 12.3079 5.19176 12.146 5.17188C11.9869 5.15199 11.8448 5.14205 11.7198 5.14205C11.4727 5.14205 11.2496 5.19744 11.0508 5.30824C10.8548 5.41619 10.6999 5.56818 10.5863 5.7642C10.4755 5.95739 10.4201 6.18466 10.4201 6.44602V10H8.33629ZM16.1026 10.1236C15.4151 10.1236 14.8242 9.98295 14.3299 9.7017C13.8384 9.41761 13.4592 9.02273 13.1921 8.51705C12.9279 8.00852 12.7958 7.41903 12.7958 6.74858C12.7958 6.07528 12.9279 5.4858 13.1921 4.98011C13.4592 4.47159 13.8384 4.0767 14.3299 3.79545C14.8242 3.51136 15.4151 3.36932 16.1026 3.36932C16.7901 3.36932 17.3796 3.51136 17.8711 3.79545C18.3654 4.0767 18.7447 4.47159 19.0089 4.98011C19.2759 5.4858 19.4094 6.07528 19.4094 6.74858C19.4094 7.41903 19.2759 8.00852 19.0089 8.51705C18.7447 9.02273 18.3654 9.41761 17.8711 9.7017C17.3796 9.98295 16.7901 10.1236 16.1026 10.1236ZM16.1154 8.55114C16.3654 8.55114 16.5771 8.47443 16.7504 8.32102C16.9237 8.16761 17.0558 7.95455 17.1467 7.68182C17.2404 7.40909 17.2873 7.09375 17.2873 6.7358C17.2873 6.37216 17.2404 6.05398 17.1467 5.78125C17.0558 5.50852 16.9237 5.29545 16.7504 5.14205C16.5771 4.98864 16.3654 4.91193 16.1154 4.91193C15.8569 4.91193 15.6381 4.98864 15.4592 5.14205C15.283 5.29545 15.1481 5.50852 15.0543 5.78125C14.9634 6.05398 14.918 6.37216 14.918 6.7358C14.918 7.09375 14.9634 7.40909 15.0543 7.68182C15.1481 7.95455 15.283 8.16761 15.4592 8.32102C15.6381 8.47443 15.8569 8.55114 16.1154 8.55114ZM20.4769 3.45455H22.5607V10.2727C22.5607 10.8125 22.4499 11.2415 22.2283 11.5597C22.0096 11.8778 21.6999 12.1065 21.2994 12.2457C20.8988 12.3849 20.4258 12.4545 19.8803 12.4545C19.8065 12.4545 19.7369 12.4531 19.6715 12.4503C19.6062 12.4474 19.5352 12.4446 19.4585 12.4418V10.8608C19.5096 10.8665 19.555 10.8707 19.5948 10.8736C19.6346 10.8764 19.6744 10.8778 19.7141 10.8778C20.0011 10.8778 20.1999 10.8239 20.3107 10.7159C20.4215 10.6108 20.4769 10.4489 20.4769 10.2301V3.45455ZM21.5167 2.69176C21.2241 2.69176 20.9727 2.59517 20.7624 2.40199C20.5522 2.20597 20.4471 1.97017 20.4471 1.6946C20.4471 1.42187 20.5522 1.18892 20.7624 0.995739C20.9727 0.799716 21.2241 0.701704 21.5167 0.701704C21.8121 0.701704 22.0636 0.799716 22.271 0.995739C22.4812 1.18892 22.5863 1.42187 22.5863 1.6946C22.5863 1.97017 22.4812 2.20597 22.271 2.40199C22.0636 2.59517 21.8121 2.69176 21.5167 2.69176ZM26.9467 10.1236C26.2621 10.1236 25.6712 9.98864 25.174 9.71875C24.6797 9.44602 24.299 9.05824 24.032 8.5554C23.7678 8.04972 23.6357 7.44886 23.6357 6.75284C23.6357 6.0767 23.7692 5.4858 24.0362 4.98011C24.3033 4.47159 24.6797 4.0767 25.1655 3.79545C25.6513 3.51136 26.2237 3.36932 26.8828 3.36932C27.3487 3.36932 27.7749 3.44176 28.1612 3.58665C28.5476 3.73153 28.8814 3.94602 29.1626 4.23011C29.4439 4.5142 29.6626 4.86506 29.8189 5.28267C29.9751 5.69744 30.0533 6.1733 30.0533 6.71023V7.23011H24.3643V6.01989H28.1143C28.1115 5.7983 28.0589 5.60085 27.9567 5.42756C27.8544 5.25426 27.7138 5.11932 27.5348 5.02273C27.3587 4.9233 27.1555 4.87358 26.9254 4.87358C26.6925 4.87358 26.4837 4.92614 26.299 5.03125C26.1143 5.13352 25.968 5.27415 25.8601 5.45312C25.7521 5.62926 25.6953 5.82955 25.6896 6.05398V7.28551C25.6896 7.55256 25.7422 7.78693 25.8473 7.98864C25.9524 8.1875 26.1016 8.34233 26.2947 8.45312C26.4879 8.56392 26.718 8.61932 26.9851 8.61932C27.1697 8.61932 27.3374 8.59375 27.4879 8.54261C27.6385 8.49148 27.7678 8.41619 27.8757 8.31676C27.9837 8.21733 28.0646 8.09517 28.1186 7.95028L30.032 8.00568C29.9524 8.43466 29.7777 8.80824 29.5078 9.12642C29.2408 9.44176 28.8899 9.6875 28.4553 9.86364C28.0206 10.0369 27.5178 10.1236 26.9467 10.1236ZM34.1729 10.1236C33.4826 10.1236 32.8903 9.98153 32.396 9.69744C31.9045 9.41335 31.5266 9.01847 31.2624 8.51278C30.9982 8.00426 30.8661 7.41619 30.8661 6.74858C30.8661 6.07812 30.9982 5.49006 31.2624 4.98438C31.5295 4.47585 31.9087 4.07955 32.4002 3.79545C32.8945 3.51136 33.484 3.36932 34.1687 3.36932C34.7738 3.36932 35.3008 3.47869 35.7496 3.69744C36.2013 3.91619 36.5536 4.22585 36.8065 4.62642C37.0621 5.02415 37.1971 5.49148 37.2113 6.02841H35.2638C35.2241 5.69318 35.1104 5.4304 34.9229 5.24006C34.7383 5.04972 34.4968 4.95455 34.1985 4.95455C33.957 4.95455 33.7454 5.02273 33.5636 5.15909C33.3817 5.29261 33.2397 5.49148 33.1374 5.75568C33.038 6.01705 32.9883 6.34091 32.9883 6.72727C32.9883 7.11364 33.038 7.44034 33.1374 7.70739C33.2397 7.97159 33.3817 8.17187 33.5636 8.30824C33.7454 8.44176 33.957 8.50852 34.1985 8.50852C34.3917 8.50852 34.5621 8.46733 34.7099 8.38494C34.8604 8.30256 34.984 8.18182 35.0806 8.02273C35.1772 7.8608 35.2383 7.66477 35.2638 7.43466H37.2113C37.1914 7.97443 37.0565 8.44602 36.8065 8.84943C36.5593 9.25284 36.2113 9.56676 35.7624 9.79119C35.3164 10.0128 34.7866 10.1236 34.1729 10.1236ZM41.9723 3.45455V4.98864H37.843V3.45455H41.9723ZM38.7081 1.88636H40.7919V7.94176C40.7919 8.0696 40.8118 8.1733 40.8516 8.25284C40.8942 8.32955 40.9553 8.38494 41.0348 8.41903C41.1143 8.45028 41.2095 8.46591 41.3203 8.46591C41.3999 8.46591 41.4837 8.45881 41.5717 8.4446C41.6626 8.42756 41.7308 8.41335 41.7763 8.40199L42.0916 9.90625C41.9922 9.93466 41.8516 9.97017 41.6697 10.0128C41.4908 10.0554 41.2763 10.0824 41.0263 10.0938C40.5376 10.1165 40.1186 10.0597 39.7692 9.9233C39.4226 9.78409 39.157 9.56818 38.9723 9.27557C38.7905 8.98295 38.7024 8.61506 38.7081 8.17188V1.88636Z" fill="#E51919"/>
<path d="M44.2585 10L42.554 3.45455H44.6463L45.5284 7.64773H45.5838L46.5298 3.45455H48.571L49.5426 7.6179H49.598L50.4545 3.45455H52.5469L50.8381 10H48.6094L47.5866 6.18608H47.5142L46.4915 10H44.2585ZM53.3832 10V3.45455H55.467V10H53.3832ZM54.4272 2.69176C54.1346 2.69176 53.8832 2.59517 53.6729 2.40199C53.4627 2.20597 53.3576 1.97017 53.3576 1.6946C53.3576 1.42187 53.4627 1.18892 53.6729 0.995739C53.8832 0.799716 54.1346 0.701704 54.4272 0.701704C54.7227 0.701704 54.9741 0.799716 55.1815 0.995739C55.3917 1.18892 55.4968 1.42187 55.4968 1.6946C55.4968 1.97017 55.3917 2.20597 55.1815 2.40199C54.9741 2.59517 54.7227 2.69176 54.4272 2.69176ZM60.4879 3.45455V4.98864H56.3587V3.45455H60.4879ZM57.2237 1.88636H59.3075V7.94176C59.3075 8.0696 59.3274 8.1733 59.3672 8.25284C59.4098 8.32955 59.4709 8.38494 59.5504 8.41903C59.63 8.45028 59.7251 8.46591 59.8359 8.46591C59.9155 8.46591 59.9993 8.45881 60.0874 8.4446C60.1783 8.42756 60.2464 8.41335 60.2919 8.40199L60.6072 9.90625C60.5078 9.93466 60.3672 9.97017 60.1854 10.0128C60.0064 10.0554 59.7919 10.0824 59.5419 10.0938C59.0533 10.1165 58.6342 10.0597 58.2848 9.9233C57.9382 9.78409 57.6726 9.56818 57.4879 9.27557C57.3061 8.98295 57.218 8.61506 57.2237 8.17188V1.88636ZM63.7756 6.26705V10H61.6918V1.27273H63.7074V4.65625H63.7798C63.9276 4.25284 64.169 3.9375 64.5043 3.71023C64.8423 3.48295 65.2557 3.36932 65.7443 3.36932C66.2045 3.36932 66.6051 3.47159 66.946 3.67614C67.2869 3.87784 67.5511 4.16335 67.7386 4.53267C67.929 4.90199 68.0227 5.33381 68.0199 5.82812V10H65.9361V6.23722C65.9389 5.87358 65.848 5.58949 65.6634 5.38494C65.4787 5.1804 65.2188 5.07812 64.8835 5.07812C64.6648 5.07812 64.4716 5.12642 64.304 5.22301C64.1392 5.31676 64.0099 5.4517 63.9162 5.62784C63.8253 5.80398 63.7784 6.01705 63.7756 6.26705Z" fill="white"/>
<path d="M72.3718 12.5909C71.7496 12.5909 71.217 12.5043 70.7738 12.331C70.3306 12.1577 69.9826 11.9205 69.7298 11.6193C69.4769 11.3182 69.3249 10.9773 69.2738 10.5966L71.2468 10.4858C71.2837 10.6193 71.3519 10.7358 71.4513 10.8352C71.5536 10.9347 71.6857 11.0114 71.8477 11.0653C72.0124 11.1193 72.2056 11.1463 72.4272 11.1463C72.7766 11.1463 73.065 11.0611 73.2923 10.8906C73.5224 10.723 73.6374 10.429 73.6374 10.0085V8.85795H73.565C73.4826 9.05966 73.3576 9.24006 73.19 9.39915C73.0224 9.55824 72.8136 9.68324 72.5636 9.77415C72.3164 9.86506 72.0323 9.91051 71.7113 9.91051C71.234 9.91051 70.7965 9.79972 70.3988 9.57812C70.0039 9.35369 69.6871 9.0071 69.4485 8.53835C69.2127 8.06676 69.0948 7.46023 69.0948 6.71875C69.0948 5.95455 69.217 5.32528 69.4613 4.83097C69.7056 4.33381 70.0252 3.96591 70.4201 3.72727C70.8178 3.48864 71.2454 3.36932 71.7028 3.36932C72.0465 3.36932 72.3406 3.42898 72.5849 3.5483C72.832 3.66477 73.0352 3.81534 73.1942 4C73.3533 4.18466 73.4741 4.37642 73.5565 4.57528H73.6161V3.45455H75.6914V10.0256C75.6914 10.5795 75.5522 11.0469 75.2738 11.4276C74.9954 11.8082 74.6062 12.0966 74.1062 12.2926C73.6062 12.4915 73.0281 12.5909 72.3718 12.5909ZM72.4357 8.39347C72.6886 8.39347 72.9045 8.3267 73.0835 8.19318C73.2624 8.05966 73.4002 7.8679 73.4968 7.6179C73.5934 7.3679 73.6417 7.06818 73.6417 6.71875C73.6417 6.36364 73.5934 6.05824 73.4968 5.80256C73.4031 5.54403 73.2653 5.34517 73.0835 5.20597C72.9045 5.06676 72.6886 4.99716 72.4357 4.99716C72.1772 4.99716 71.9585 5.06818 71.7795 5.21023C71.6005 5.35227 71.4641 5.55256 71.3704 5.81108C71.2795 6.06676 71.234 6.36932 71.234 6.71875C71.234 7.06818 71.2809 7.3679 71.3746 7.6179C71.4684 7.8679 71.6033 8.05966 71.7795 8.19318C71.9585 8.3267 72.1772 8.39347 72.4357 8.39347ZM80.0753 10.1236C79.3878 10.1236 78.7969 9.98295 78.3026 9.7017C77.8111 9.41761 77.4318 9.02273 77.1648 8.51705C76.9006 8.00852 76.7685 7.41903 76.7685 6.74858C76.7685 6.07528 76.9006 5.4858 77.1648 4.98011C77.4318 4.47159 77.8111 4.0767 78.3026 3.79545C78.7969 3.51136 79.3878 3.36932 80.0753 3.36932C80.7628 3.36932 81.3523 3.51136 81.8438 3.79545C82.3381 4.0767 82.7173 4.47159 82.9815 4.98011C83.2486 5.4858 83.3821 6.07528 83.3821 6.74858C83.3821 7.41903 83.2486 8.00852 82.9815 8.51705C82.7173 9.02273 82.3381 9.41761 81.8438 9.7017C81.3523 9.98295 80.7628 10.1236 80.0753 10.1236ZM80.0881 8.55114C80.3381 8.55114 80.5497 8.47443 80.723 8.32102C80.8963 8.16761 81.0284 7.95455 81.1193 7.68182C81.2131 7.40909 81.2599 7.09375 81.2599 6.7358C81.2599 6.37216 81.2131 6.05398 81.1193 5.78125C81.0284 5.50852 80.8963 5.29545 80.723 5.14205C80.5497 4.98864 80.3381 4.91193 80.0881 4.91193C79.8295 4.91193 79.6108 4.98864 79.4318 5.14205C79.2557 5.29545 79.1207 5.50852 79.027 5.78125C78.9361 6.05398 78.8906 6.37216 78.8906 6.7358C78.8906 7.09375 78.9361 7.40909 79.027 7.68182C79.1207 7.95455 79.2557 8.16761 79.4318 8.32102C79.6108 8.47443 79.8295 8.55114 80.0881 8.55114ZM84.4496 12.4545V3.45455H86.5121V4.57528H86.576C86.6612 4.37642 86.782 4.18466 86.9382 4C87.0973 3.81534 87.299 3.66477 87.5433 3.5483C87.7905 3.42898 88.0859 3.36932 88.4297 3.36932C88.8842 3.36932 89.3089 3.48864 89.7038 3.72727C90.1016 3.96591 90.4226 4.33381 90.6669 4.83097C90.9112 5.32812 91.0334 5.96165 91.0334 6.73153C91.0334 7.47301 90.9155 8.09375 90.6797 8.59375C90.4467 9.09375 90.1314 9.46875 89.7337 9.71875C89.3388 9.96875 88.8999 10.0938 88.4169 10.0938C88.0874 10.0938 87.8018 10.0398 87.5604 9.93182C87.3189 9.82386 87.1158 9.68182 86.951 9.50568C86.7891 9.32955 86.6641 9.14062 86.576 8.93892H86.5334V12.4545H84.4496ZM86.4908 6.72727C86.4908 7.07955 86.5376 7.38636 86.6314 7.64773C86.728 7.90909 86.8658 8.11222 87.0447 8.2571C87.2266 8.39915 87.4439 8.47017 87.6967 8.47017C87.9524 8.47017 88.1697 8.39915 88.3487 8.2571C88.5277 8.11222 88.6626 7.90909 88.7536 7.64773C88.8473 7.38636 88.8942 7.07955 88.8942 6.72727C88.8942 6.375 88.8473 6.0696 88.7536 5.81108C88.6626 5.55256 88.5277 5.35227 88.3487 5.21023C88.1726 5.06818 87.9553 4.99716 87.6967 4.99716C87.4411 4.99716 87.2237 5.06676 87.0447 5.20597C86.8658 5.34517 86.728 5.54403 86.6314 5.80256C86.5376 6.06108 86.4908 6.36932 86.4908 6.72727ZM93.9705 10.1108C93.5529 10.1108 93.1822 10.0412 92.8583 9.90199C92.5373 9.75994 92.283 9.54687 92.0955 9.26278C91.9109 8.97585 91.8185 8.61648 91.8185 8.18466C91.8185 7.82102 91.8825 7.5142 92.0103 7.2642C92.1381 7.0142 92.3143 6.81108 92.5387 6.65483C92.7631 6.49858 93.0217 6.38068 93.3143 6.30114C93.6069 6.21875 93.9194 6.16335 94.2518 6.13494C94.6239 6.10085 94.9237 6.06534 95.1509 6.02841C95.3782 5.98864 95.543 5.93324 95.6452 5.86222C95.7504 5.78835 95.8029 5.68466 95.8029 5.55114V5.52983C95.8029 5.31108 95.7276 5.14205 95.5771 5.02273C95.4265 4.90341 95.2234 4.84375 94.9677 4.84375C94.6921 4.84375 94.4705 4.90341 94.3029 5.02273C94.1353 5.14205 94.0288 5.30682 93.9833 5.51705L92.0614 5.44886C92.1183 5.05114 92.2646 4.69602 92.5004 4.38352C92.739 4.06818 93.0657 3.82102 93.4805 3.64205C93.8981 3.46023 94.3995 3.36932 94.9847 3.36932C95.4023 3.36932 95.7873 3.41903 96.1396 3.51847C96.4918 3.61506 96.7987 3.7571 97.06 3.9446C97.3214 4.12926 97.5231 4.35653 97.6651 4.62642C97.81 4.89631 97.8825 5.20455 97.8825 5.55114V10H95.9222V9.08807H95.8711C95.7546 9.30966 95.6055 9.49716 95.4237 9.65057C95.2447 9.80398 95.033 9.91903 94.7887 9.99574C94.5472 10.0724 94.2745 10.1108 93.9705 10.1108ZM94.614 8.74716C94.8384 8.74716 95.0401 8.7017 95.2191 8.6108C95.4009 8.51989 95.5458 8.39489 95.6538 8.2358C95.7617 8.07386 95.8157 7.88636 95.8157 7.6733V7.05114C95.756 7.08239 95.6836 7.1108 95.5984 7.13636C95.516 7.16193 95.4251 7.18608 95.3256 7.20881C95.2262 7.23153 95.1239 7.25142 95.0188 7.26847C94.9137 7.28551 94.8129 7.30114 94.7163 7.31534C94.5202 7.34659 94.3526 7.39489 94.2134 7.46023C94.0771 7.52557 93.9719 7.6108 93.8981 7.71591C93.8271 7.81818 93.7915 7.94034 93.7915 8.08239C93.7915 8.2983 93.8683 8.46307 94.0217 8.5767C94.1779 8.69034 94.3754 8.74716 94.614 8.74716ZM101.24 1.27273V10H99.1566V1.27273H101.24Z" fill="#82E109"/>
</svg>
